<?xml version="1.0" standalone="no"?>
<!DOCTYPE svg PUBLIC "-//W3C//DTD SVG 20010904//EN"
 "http://www.w3.org/TR/2001/REC-SVG-20010904/DTD/svg10.dtd">
<svg version="1.0" xmlns="http://www.w3.org/2000/svg"
 width="413.000000pt" height="146.000000pt" viewBox="0 0 413.000000 146.000000"
 preserveAspectRatio="xMidYMid meet">

<g transform="translate(0.000000,146.000000) scale(0.100000,-0.100000)"
fill="#000000" stroke="none">
<path d="M350 1031 c-45 -24 -70 -59 -77 -107 -7 -58 26 -100 115 -147 57 -30
72 -43 72 -60 0 -13 -5 -28 -12 -35 -19 -19 -80 -14 -125 12 l-42 24 -25 -41
-25 -42 20 -17 c23 -20 110 -48 146 -48 131 0 216 101 165 198 -15 29 -36 46
-97 78 -86 46 -98 59 -83 87 8 15 18 18 56 14 26 -2 56 -8 67 -11 17 -6 24 0
39 30 17 37 17 39 0 51 -48 35 -142 42 -194 14z"/>
<path d="M650 810 l0 -230 50 0 50 0 0 143 c1 165 -10 167 111 -20 l78 -123
51 0 50 0 0 230 0 230 -50 0 -49 0 -3 -141 -3 -141 -90 141 -90 141 -52 0 -53
0 0 -230z"/>
<path d="M1255 1008 c-7 -18 -49 -122 -93 -230 l-81 -198 58 0 57 0 15 43 16
42 90 3 91 3 14 -43 15 -43 58 -3 c44 -2 56 0 52 10 -2 7 -44 111 -93 231
l-88 217 -49 0 c-45 0 -49 -2 -62 -32z m92 -185 c12 -28 19 -54 15 -57 -9 -10
-92 -7 -92 3 0 21 44 121 50 114 4 -4 16 -31 27 -60z"/>
<path d="M1590 810 l0 -230 55 0 55 0 0 85 0 85 48 0 c75 1 129 31 154 86 34
78 10 150 -63 186 -26 14 -59 18 -141 18 l-108 0 0 -230z m174 140 c39 -14 53
-53 32 -85 -13 -20 -25 -25 -56 -25 l-40 0 0 60 c0 66 8 72 64 50z"/>
<path d="M1980 810 l0 -230 86 0 c115 0 159 14 214 70 94 94 95 228 1 321 -56
56 -95 69 -213 69 l-88 0 0 -230z m197 115 c38 -25 57 -64 57 -115 0 -73 -39
-120 -111 -135 l-33 -7 0 142 0 143 32 -7 c18 -3 42 -13 55 -21z"/>
<path d="M2420 810 l0 -230 50 0 49 0 3 92 3 91 69 -91 70 -92 63 0 c35 0 63
3 63 6 0 3 -34 45 -75 94 l-75 88 33 21 c42 25 57 58 57 120 0 96 -56 131
-210 131 l-100 0 0 -230z m178 134 c15 -10 22 -25 22 -49 0 -39 -20 -55 -69
-55 -31 0 -31 0 -31 53 0 30 3 57 7 60 11 12 48 7 71 -9z"/>
<path d="M2840 810 l0 -230 50 0 50 0 0 230 0 230 -50 0 -50 0 0 -230z"/>
<path d="M2994 1023 c3 -10 46 -112 94 -228 l88 -210 44 0 43 0 94 223 c51
123 93 226 93 228 0 2 -26 4 -58 4 l-57 0 -55 -145 c-30 -80 -57 -145 -60
-145 -3 0 -30 65 -60 145 l-55 145 -58 0 c-51 0 -58 -2 -53 -17z"/>
<path d="M3490 810 l0 -230 135 0 135 0 0 45 0 45 -80 0 -80 0 0 50 0 50 75 0
75 0 0 45 0 45 -75 0 -75 0 0 45 0 45 80 0 80 0 0 45 0 45 -135 0 -135 0 0
-230z"/>
<path d="M606 369 c-35 -27 -36 -86 -3 -117 27 -25 88 -30 106 -9 16 20 3 27
-26 16 -36 -14 -73 12 -73 50 0 39 22 55 65 48 40 -6 55 7 26 22 -31 17 -66
13 -95 -10z"/>
<path d="M792 315 c-37 -85 -37 -85 -18 -85 7 0 16 9 19 20 4 16 14 20 45 20
32 0 42 -4 47 -20 3 -11 13 -20 22 -20 17 0 16 4 -25 97 -16 37 -33 63 -42 63
-10 0 -28 -27 -48 -75z m65 5 c11 -29 10 -30 -17 -30 -28 0 -29 1 -19 30 6 17
14 30 18 30 4 0 12 -13 18 -30z"/>
<path d="M970 310 c0 -64 3 -80 15 -80 9 0 15 9 15 25 0 18 5 25 20 25 11 0
27 -11 36 -25 9 -14 23 -25 30 -25 17 0 18 12 2 28 -10 10 -10 17 0 32 33 54
-1 100 -75 100 l-43 0 0 -80z m95 20 c0 -21 -5 -26 -32 -28 -31 -3 -33 -1 -33
28 0 29 2 31 33 28 27 -2 32 -7 32 -28z"/>
<path d="M1166 371 c-26 -28 -12 -57 32 -72 49 -15 56 -23 37 -39 -13 -11 -23
-11 -46 -3 -19 8 -31 8 -35 1 -17 -27 84 -40 106 -14 23 29 8 60 -37 74 -24 8
-43 20 -43 27 0 16 35 29 50 20 6 -4 18 -4 28 0 14 5 14 7 2 15 -26 16 -76 11
-94 -9z"/>
<path d="M1420 310 c0 -47 4 -80 10 -80 6 0 10 20 10 45 0 25 3 45 8 45 4 0
16 -16 26 -35 11 -19 23 -35 28 -35 5 0 19 17 31 38 l22 37 3 -47 c2 -34 7
-48 18 -48 11 0 14 17 14 80 0 96 -12 103 -53 30 -16 -28 -30 -50 -33 -50 -2
0 -18 23 -35 50 -17 28 -35 50 -40 50 -5 0 -9 -36 -9 -80z"/>
<path d="M1672 315 c-37 -85 -37 -85 -18 -85 7 0 16 9 19 20 4 16 14 20 45 20
32 0 42 -4 47 -20 3 -11 13 -20 22 -20 17 0 16 4 -25 97 -16 37 -33 63 -42 63
-10 0 -28 -27 -48 -75z m65 5 c11 -29 10 -30 -17 -30 -28 0 -29 1 -19 30 6 17
14 30 18 30 4 0 12 -13 18 -30z"/>
<path d="M1850 310 c0 -64 3 -80 15 -80 9 0 15 9 15 25 0 18 5 25 20 25 11 0
27 -11 36 -25 9 -14 23 -25 30 -25 17 0 18 12 2 28 -10 10 -10 17 0 32 33 54
-1 100 -75 100 l-43 0 0 -80z m95 20 c0 -21 -5 -26 -32 -28 -31 -3 -33 -1 -33
28 0 29 2 31 33 28 27 -2 32 -7 32 -28z"/>
<path d="M2040 310 c0 -64 3 -80 15 -80 9 0 15 9 15 25 0 39 26 41 56 6 31
-38 67 -45 40 -8 -54 74 -52 65 -16 102 49 51 15 44 -37 -7 l-43 -42 0 42 c0
31 -4 42 -15 42 -12 0 -15 -16 -15 -80z"/>
<path d="M2230 310 l0 -80 60 0 c33 0 60 4 60 10 0 6 -20 10 -45 10 -41 0 -45
2 -45 25 0 23 4 25 40 25 22 0 40 5 40 10 0 6 -18 10 -40 10 -33 0 -40 3 -40
19 0 16 8 20 42 23 23 2 43 9 46 16 3 9 -13 12 -57 12 l-61 0 0 -80z"/>
<path d="M2390 375 c0 -9 9 -15 25 -15 24 0 25 -2 25 -65 0 -51 3 -65 15 -65
12 0 15 14 15 65 0 63 1 65 25 65 16 0 25 6 25 15 0 12 -14 15 -65 15 -51 0
-65 -3 -65 -15z"/>
<path d="M2570 310 c0 -64 3 -80 15 -80 9 0 15 9 15 25 0 22 4 25 38 25 45 0
62 14 62 51 0 37 -33 59 -87 59 l-43 0 0 -80z m95 20 c0 -21 -5 -26 -32 -28
-31 -3 -33 -1 -33 28 0 29 2 31 33 28 27 -2 32 -7 32 -28z"/>
<path d="M2760 310 l0 -80 55 0 c30 0 55 5 55 10 0 6 -18 10 -40 10 l-40 0 0
70 c0 56 -3 70 -15 70 -12 0 -15 -16 -15 -80z"/>
<path d="M2950 343 c-51 -113 -52 -113 -35 -113 8 0 19 9 25 20 15 28 73 27
92 -1 8 -12 19 -20 25 -18 15 6 -51 153 -71 157 -9 2 -22 -14 -36 -45z m60
-45 c0 -5 -11 -8 -25 -8 -29 0 -29 -1 -14 37 l11 28 13 -25 c8 -14 14 -28 15
-32z"/>
<path d="M3136 369 c-35 -27 -36 -86 -3 -117 27 -25 88 -30 106 -9 16 20 3 27
-26 16 -36 -14 -73 12 -73 50 0 39 22 55 65 48 40 -6 55 7 26 22 -31 17 -66
13 -95 -10z"/>
<path d="M3300 310 l0 -80 60 0 c68 0 82 17 18 22 -36 2 -44 7 -46 26 -3 20 1
22 37 22 23 0 41 5 41 10 0 6 -18 10 -40 10 -33 0 -40 3 -40 20 0 17 7 20 45
20 33 0 45 4 45 15 0 12 -13 15 -60 15 l-60 0 0 -80z"/>
</g>
</svg>
